<?xml version="1.0" standalone="no"?>
<!DOCTYPE svg PUBLIC "-//W3C//DTD SVG 20010904//EN"
 "http://www.w3.org/TR/2001/REC-SVG-20010904/DTD/svg10.dtd">
<svg version="1.0" xmlns="http://www.w3.org/2000/svg"
 width="277.000000pt" height="288.000000pt" viewBox="0 0 277.000000 288.000000"
 preserveAspectRatio="xMidYMid meet">

<g transform="translate(0.000000,288.000000) scale(0.100000,-0.100000)"
fill="#000000" stroke="none">
<path d="M725 2288 c-46 -16 -91 -53 -109 -91 -13 -28 -16 -67 -16 -195 l0
-160 -69 -4 c-52 -3 -77 -9 -104 -28 -56 -38 -67 -77 -67 -245 l0 -145 50 0
50 0 0 144 c0 171 2 176 86 176 l54 0 0 -627 0 -627 45 -42 c42 -39 45 -45 45
-94 0 -67 32 -114 88 -130 50 -14 249 -12 292 3 50 17 80 67 80 133 l0 54 270
0 270 0 0 -46 c0 -25 7 -61 16 -79 27 -58 55 -69 189 -73 197 -7 242 17 257
134 7 60 11 70 45 99 l38 33 5 628 5 629 52 3 c42 2 56 -1 73 -18 20 -20 21
-30 18 -161 l-3 -139 48 0 47 0 0 153 c0 125 -3 158 -18 187 -24 48 -74 74
-152 80 l-65 5 -5 170 c-3 107 -10 178 -17 191 -20 34 -70 72 -111 84 -51 14
-1346 12 -1387 -2z m1396 -118 c29 -28 30 -32 27 -107 l-3 -78 -722 -3 -723
-2 0 85 c0 78 2 88 25 110 l24 25 671 0 672 0 29 -30z m-751 -650 l0 -370
-334 0 c-213 0 -336 4 -338 10 -2 5 -2 172 0 370 l2 360 335 0 335 0 0 -370z
m778 -2 l2 -368 -340 0 -340 0 0 363 c0 200 3 367 7 370 4 4 155 6 337 5 l331
-3 3 -367z m2 -727 c0 -206 -3 -261 -14 -270 -9 -8 -207 -10 -722 -9 l-709 3
-3 268 -2 267 725 0 725 0 0 -259z m-1092 -413 c2 -15 -2 -36 -8 -48 -10 -18
-20 -20 -130 -20 -108 0 -120 2 -130 19 -11 22 -13 64 -3 75 4 3 66 5 137 4
l131 -3 3 -27z m1002 -6 c0 -21 -5 -43 -12 -50 -13 -13 -212 -17 -242 -6 -11
4 -16 19 -16 50 l0 44 135 0 135 0 0 -38z"/>
<path d="M914 960 c-18 -6 -48 -28 -67 -49 -58 -64 -62 -151 -11 -218 35 -47
84 -66 152 -61 86 7 141 62 150 147 6 63 -25 131 -72 161 -40 24 -109 33 -152
20z m95 -100 c28 -14 45 -64 31 -89 -31 -59 -97 -63 -130 -8 -25 40 -25 39 6
76 27 32 59 39 93 21z"/>
<path d="M1825 963 c-62 -16 -125 -101 -125 -168 0 -48 32 -108 72 -137 45
-32 153 -33 194 -2 72 53 95 145 55 221 -33 66 -124 106 -196 86z m96 -111
c30 -25 30 -74 -1 -107 -30 -32 -64 -32 -95 0 -34 33 -33 77 1 104 33 26 65
27 95 3z"/>
</g>
</svg>
