<?xml version="1.0" standalone="no"?>
<!DOCTYPE svg PUBLIC "-//W3C//DTD SVG 20010904//EN"
 "http://www.w3.org/TR/2001/REC-SVG-20010904/DTD/svg10.dtd">
<svg version="1.0" xmlns="http://www.w3.org/2000/svg"
 width="360.000000pt" height="316.000000pt" viewBox="0 0 360.000000 316.000000"
 preserveAspectRatio="xMidYMid meet">

<g transform="translate(0.000000,316.000000) scale(0.100000,-0.100000)"
fill="#000000" stroke="none">
<path d="M1229 2367 c-56 -13 -96 -37 -128 -79 -19 -24 -84 -158 -106 -218
-23 -62 -74 -170 -80 -170 -4 0 -28 18 -54 40 l-48 41 -114 -3 -114 -3 -3 -47
-3 -48 103 0 104 0 35 -36 34 -35 -30 -25 c-70 -58 -117 -109 -138 -148 -21
-38 -22 -56 -25 -281 -2 -132 -1 -255 3 -273 3 -19 24 -53 46 -77 l39 -42 0
-95 c0 -83 3 -99 22 -123 34 -44 75 -55 198 -55 183 0 220 29 220 174 l0 86
595 0 595 0 0 -89 c0 -82 2 -92 26 -120 36 -44 82 -54 222 -50 l122 4 32 33
c33 32 33 34 36 140 3 102 5 108 32 137 16 17 34 43 39 58 7 17 11 121 11 261
0 293 -2 301 -111 408 -44 42 -79 81 -79 85 1 4 17 20 37 36 34 25 43 27 135
27 l99 0 -3 48 -3 47 -114 3 -114 3 -48 -41 c-47 -40 -69 -49 -69 -30 0 5 -33
85 -72 177 -62 143 -80 175 -123 219 -28 28 -64 54 -80 59 -52 14 -1062 16
-1126 2z m1111 -107 c43 -22 56 -45 166 -299 l58 -134 -58 -54 -57 -53 -669 0
-669 0 -58 54 -57 53 43 99 c130 297 138 312 181 335 33 18 66 19 558 19 503
0 524 -1 562 -20z m-1335 -575 l62 -55 715 0 715 0 60 55 c34 30 65 55 70 55
16 0 143 -122 161 -154 15 -27 17 -62 17 -258 0 -226 0 -226 -24 -252 l-24
-26 -979 0 c-960 0 -978 0 -998 20 -30 30 -32 50 -28 276 3 202 4 210 28 251
23 39 133 141 153 142 5 1 37 -24 72 -54z m83 -812 l-3 -78 -109 -3 c-71 -2
-113 1 -122 9 -14 12 -20 129 -7 142 3 4 60 7 125 7 l119 0 -3 -77z m1630 0
l-3 -78 -109 -3 c-71 -2 -113 1 -122 9 -14 12 -20 129 -7 142 3 4 60 7 125 7
l119 0 -3 -77z"/>
<path d="M826 1524 c-20 -20 -20 -30 3 -79 22 -49 80 -106 124 -122 45 -16
449 -17 465 -1 28 28 12 56 -74 137 -86 80 -116 95 -142 69 -21 -21 -13 -57
18 -85 17 -14 30 -30 30 -35 0 -6 -56 -8 -130 -6 l-129 3 -41 40 c-22 21 -40
45 -40 51 0 19 -29 44 -50 44 -10 0 -26 -7 -34 -16z"/>
<path d="M2216 1459 c-86 -81 -101 -110 -74 -137 9 -9 72 -12 220 -12 262 0
288 9 359 119 36 56 37 88 5 103 -34 15 -49 7 -83 -43 -52 -78 -78 -89 -214
-89 -66 0 -119 4 -119 8 0 5 14 21 30 35 31 28 39 64 18 85 -27 27 -57 12
-142 -69z"/>
<path d="M1370 1180 l0 -50 413 2 412 3 0 45 0 45 -412 3 -413 2 0 -50z"/>
</g>
</svg>
