<?xml version="1.0" standalone="no"?>
<!DOCTYPE svg PUBLIC "-//W3C//DTD SVG 20010904//EN"
 "http://www.w3.org/TR/2001/REC-SVG-20010904/DTD/svg10.dtd">
<svg version="1.0" xmlns="http://www.w3.org/2000/svg"
 width="405.000000pt" height="375.000000pt" viewBox="0 0 405.000000 375.000000"
 preserveAspectRatio="xMidYMid meet">

<g transform="translate(0.000000,375.000000) scale(0.100000,-0.100000)"
fill="#000000" stroke="none">
<path d="M1845 3366 c-98 -45 -164 -125 -205 -247 -24 -70 -28 -145 -20 -388
l5 -144 -670 -188 c-465 -131 -673 -193 -682 -205 -20 -28 -18 -273 3 -302 15
-22 16 -22 318 -22 281 0 304 1 319 18 23 25 21 68 -3 92 -19 19 -33 20 -270
20 l-250 0 0 53 0 52 618 173 c339 95 620 172 623 172 3 0 5 -8 5 -17 -2 -37
15 -360 21 -395 l6 -38 -167 0 c-164 0 -167 0 -191 -25 -30 -29 -32 -58 -5
-85 18 -18 33 -20 193 -20 l173 0 13 -167 c7 -93 14 -188 17 -213 2 -25 11
-116 20 -202 8 -87 13 -162 10 -166 -3 -5 -109 -71 -237 -148 -135 -81 -234
-147 -239 -159 -4 -11 -1 -67 6 -125 13 -90 18 -108 40 -128 16 -14 33 -20 47
-17 19 4 392 69 455 79 19 3 26 -5 43 -44 30 -70 70 -105 120 -104 50 2 79 27
113 100 22 47 29 54 48 49 13 -3 122 -23 243 -44 232 -41 257 -41 275 1 11 28
30 153 30 202 0 44 -2 46 -277 211 -184 111 -212 131 -208 149 7 31 41 388 61
644 l6 82 684 0 c671 0 684 0 704 20 18 18 20 33 20 149 0 175 13 163 -255
236 -191 53 -211 57 -235 44 -32 -18 -40 -78 -14 -100 9 -8 96 -36 193 -64
l176 -50 3 -52 3 -53 -637 0 -637 0 6 83 c4 45 10 145 13 222 4 77 8 141 9
143 2 2 119 -29 260 -68 l258 -72 26 20 c14 10 27 30 29 43 6 51 -13 60 -295
139 l-268 76 1 79 c6 380 6 378 -16 446 -39 128 -140 240 -240 269 -61 17
-141 12 -195 -14z m203 -133 c45 -33 91 -101 108 -161 15 -49 16 -90 10 -297
-4 -132 -9 -261 -11 -285 -2 -25 -6 -103 -10 -175 -5 -120 -18 -332 -30 -515
-38 -543 -120 -1150 -155 -1150 -34 0 -102 454 -140 930 -6 74 -12 153 -15
175 -2 22 -7 94 -10 160 -3 66 -8 136 -10 155 -2 19 -7 100 -10 180 -4 80 -8
163 -10 185 -2 22 -7 128 -10 235 -4 107 -8 218 -11 245 -11 139 61 295 156
334 37 16 117 7 148 -16z m-298 -2265 c1 -2 9 -48 19 -103 11 -55 16 -103 12
-107 -3 -3 -91 -21 -195 -38 -157 -27 -190 -30 -197 -19 -25 40 -12 52 169
161 159 96 191 114 192 106z m583 -90 c213 -128 204 -122 199 -157 -2 -17 -9
-31 -16 -31 -13 0 -380 62 -384 65 -7 6 32 215 40 215 5 0 78 -41 161 -92z"/>
<path d="M2936 2375 c-39 -39 -26 -88 29 -111 61 -25 100 -13 117 36 20 58
-101 120 -146 75z"/>
<path d="M1010 1980 c-25 -25 -26 -72 -2 -93 14 -13 38 -17 99 -17 91 0 113
13 113 68 0 46 -30 62 -117 62 -60 0 -77 -4 -93 -20z"/>
<path d="M654 1762 c-26 -17 -34 -56 -34 -167 0 -143 13 -175 71 -175 51 0 59
23 59 177 0 123 -2 142 -18 156 -19 18 -59 22 -78 9z"/>
<path d="M1077 1752 c-15 -16 -17 -46 -17 -215 0 -191 1 -196 22 -211 33 -23
64 -19 87 10 20 25 21 40 21 210 0 171 -1 185 -20 204 -25 25 -72 26 -93 2z"/>
<path d="M2746 1748 c-13 -18 -16 -56 -16 -210 0 -175 1 -189 20 -208 11 -11
31 -20 45 -20 14 0 34 9 45 20 19 19 20 33 20 208 0 214 -5 232 -65 232 -24 0
-39 -7 -49 -22z"/>
<path d="M3184 1756 c-17 -13 -19 -29 -22 -136 -4 -132 0 -160 24 -184 21 -22
67 -20 87 2 14 15 17 42 17 159 0 123 -2 142 -18 156 -23 21 -62 22 -88 3z"/>
<path d="M659 1356 c-15 -7 -27 -25 -33 -47 -18 -72 43 -132 98 -95 22 14 26
24 26 64 0 55 -6 67 -41 81 -18 6 -33 6 -50 -3z"/>
<path d="M3200 1357 c-34 -17 -50 -79 -29 -115 21 -38 61 -50 93 -28 22 14 26
24 26 64 0 53 -5 64 -37 81 -26 13 -22 13 -53 -2z"/>
<path d="M1095 1248 c-32 -18 -35 -28 -35 -115 0 -73 2 -83 22 -97 32 -22 55
-20 83 9 22 21 25 33 25 93 0 52 -4 75 -17 90 -23 26 -53 34 -78 20z"/>
<path d="M2755 1238 c-23 -18 -25 -26 -25 -99 0 -66 3 -82 20 -99 27 -27 62
-25 88 3 19 20 22 35 22 99 0 59 -4 78 -17 90 -30 26 -61 28 -88 6z"/>
</g>
</svg>
