<?xml version="1.0" standalone="no"?>
<!DOCTYPE svg PUBLIC "-//W3C//DTD SVG 20010904//EN"
 "http://www.w3.org/TR/2001/REC-SVG-20010904/DTD/svg10.dtd">
<svg version="1.0" xmlns="http://www.w3.org/2000/svg"
 width="225.000000pt" height="225.000000pt" viewBox="0 0 225.000000 225.000000"
 preserveAspectRatio="xMidYMid meet">

<g transform="translate(0.000000,225.000000) scale(0.100000,-0.100000)"
fill="#000000" stroke="none">
<path d="M908 1632 l-118 -97 0 -132 0 -133 -124 0 c-123 0 -125 0 -145 -26
-14 -18 -21 -41 -21 -70 0 -37 3 -44 20 -44 11 0 20 -6 20 -12 0 -7 11 -139
25 -293 14 -153 25 -285 25 -292 0 -10 109 -13 559 -13 616 0 580 -4 587 63 2
18 -2 42 -10 52 -12 17 -11 22 7 46 29 40 19 98 -31 168 -75 106 -187 161
-347 169 -113 5 -184 -7 -264 -43 l-54 -25 7 61 c3 34 6 75 6 90 0 22 5 29 20
29 17 0 20 7 20 50 0 82 -14 90 -165 90 l-125 0 0 114 c0 63 3 122 6 131 4 8
57 57 118 107 105 85 129 109 109 107 -4 0 -61 -44 -125 -97z m153 -401 c13
-15 19 -36 17 -55 l-3 -31 -277 -3 -278 -2 0 44 c0 76 5 77 283 74 l239 -3 19
-24z m-26 -138 c-3 -21 -14 -150 -26 -288 -11 -137 -22 -256 -24 -263 -4 -10
-46 -12 -183 -12 -98 1 -183 5 -188 8 -8 6 -55 509 -54 575 0 16 18 17 240 17
l240 0 -5 -37z m459 -115 c167 -55 289 -225 216 -298 -19 -19 -33 -20 -353
-20 -184 0 -336 2 -338 4 -2 3 0 62 6 131 12 143 14 146 107 180 108 39 252
40 362 3z m-149 -338 l150 -1 -88 -34 -87 -34 -83 31 c-92 35 -109 45 -69 42
15 -1 95 -3 177 -4z m-149 -40 c59 -22 114 -40 124 -40 10 0 66 18 125 40 98
37 114 41 189 38 l81 -3 3 -42 c2 -33 -1 -44 -16 -52 -21 -11 -689 -14 -695
-3 -2 4 -2 28 1 55 l4 47 39 0 c21 0 87 -18 145 -40z"/>
<path d="M723 959 c-43 -13 -82 -60 -76 -93 8 -42 55 -68 132 -74 78 -5 130
12 157 53 51 78 -85 151 -213 114z m168 -32 c48 -32 51 -70 8 -96 -44 -27 -82
-34 -135 -26 -53 8 -106 49 -102 78 9 63 159 92 229 44z"/>
<path d="M1144 886 c-10 -26 4 -48 28 -44 17 2 23 10 23 28 0 18 -6 26 -23 28
-13 2 -25 -3 -28 -12z m36 -11 c0 -8 -7 -15 -15 -15 -16 0 -20 12 -8 23 11 12
23 8 23 -8z"/>
<path d="M1307 894 c-14 -15 -6 -43 14 -49 25 -8 42 6 37 31 -3 19 -38 31 -51
18z m35 -19 c0 -5 -5 -11 -11 -13 -6 -2 -11 4 -11 13 0 9 5 15 11 13 6 -2 11
-8 11 -13z"/>
<path d="M1464 885 c-4 -9 0 -23 8 -31 20 -20 50 -7 46 20 -4 26 -45 35 -54
11z m44 -13 c2 -7 -3 -12 -12 -12 -9 0 -16 7 -16 16 0 17 22 14 28 -4z"/>
<path d="M1064 806 c-10 -26 4 -48 28 -44 17 2 23 10 23 28 0 18 -6 26 -23 28
-13 2 -25 -3 -28 -12z m36 -17 c0 -5 -7 -9 -15 -9 -15 0 -20 12 -9 23 8 8 24
-1 24 -14z"/>
<path d="M1224 806 c-10 -26 4 -48 28 -44 17 2 23 10 23 28 0 18 -6 26 -23 28
-13 2 -25 -3 -28 -12z m36 -11 c0 -8 -4 -15 -9 -15 -13 0 -22 16 -14 24 11 11
23 6 23 -9z"/>
<path d="M1384 806 c-10 -26 4 -48 28 -44 17 2 23 10 23 28 0 18 -6 26 -23 28
-13 2 -25 -3 -28 -12z m46 -17 c0 -5 -7 -9 -15 -9 -15 0 -20 12 -9 23 8 8 24
-1 24 -14z"/>
<path d="M1544 805 c-4 -9 0 -23 9 -32 21 -21 49 -9 45 19 -4 28 -45 38 -54
13z m46 -16 c0 -5 -7 -9 -15 -9 -15 0 -20 12 -9 23 8 8 24 -1 24 -14z"/>
</g>
</svg>
