<?xml version="1.0" standalone="no"?>
<!DOCTYPE svg PUBLIC "-//W3C//DTD SVG 20010904//EN"
 "http://www.w3.org/TR/2001/REC-SVG-20010904/DTD/svg10.dtd">
<svg version="1.0" xmlns="http://www.w3.org/2000/svg"
 width="292.000000pt" height="173.000000pt" viewBox="0 0 292.000000 173.000000"
 preserveAspectRatio="xMidYMid meet">

<g transform="translate(0.000000,173.000000) scale(0.100000,-0.100000)"
fill="#000000" stroke="none">
<path d="M1035 1720 c-367 -39 -705 -206 -880 -435 -301 -393 -146 -875 360
-1125 134 -66 230 -100 379 -132 86 -19 134 -22 316 -22 189 -1 228 2 324 23
267 57 460 149 640 306 40 35 92 71 114 80 l41 17 63 -65 c59 -60 126 -97 176
-97 32 0 4 34 -38 46 -75 22 -122 71 -178 187 l-51 102 -219 183 c-121 101
-223 190 -226 198 -17 44 18 94 65 94 13 0 127 -57 252 -126 205 -113 247
-131 247 -104 0 4 -54 38 -120 76 -125 70 -129 75 -114 132 6 21 11 22 106 22
165 0 169 -4 413 -380 169 -261 182 -280 195 -280 25 0 -2 51 -162 298 -186
288 -255 371 -325 392 -31 10 -44 21 -58 49 -29 62 -100 153 -172 222 -263
254 -709 385 -1148 339z m490 -70 c203 -43 404 -129 537 -229 82 -62 195 -185
231 -250 l28 -51 -60 0 -60 0 5 28 c11 53 -18 72 -152 98 -65 13 -158 29 -207
35 -119 17 -118 18 -162 -187 -39 -180 -41 -206 -19 -228 8 -9 16 -16 17 -16
37 -4 260 -50 265 -54 3 -4 0 -12 -6 -18 -26 -26 -14 -70 32 -113 l44 -40 -19
-24 c-24 -29 -25 -83 -1 -103 9 -9 51 -33 92 -53 41 -21 77 -39 79 -41 8 -7
-73 -75 -157 -130 -147 -98 -304 -161 -507 -201 -139 -27 -476 -25 -608 5
-225 50 -413 134 -556 248 -327 262 -383 633 -141 935 176 221 493 374 855
413 99 10 372 -3 470 -24z m464 -430 c90 -16 168 -33 173 -38 9 -9 -9 -130
-22 -152 -4 -7 -39 8 -96 40 -49 27 -102 50 -117 50 -69 0 -124 -62 -113 -126
5 -24 25 -49 74 -94 37 -33 62 -60 57 -60 -33 0 -242 44 -251 54 -9 8 -3 51
22 171 19 88 37 166 39 173 7 18 54 15 234 -18z m113 -497 c144 -115 171 -143
151 -150 -58 -23 -133 13 -246 117 l-49 45 22 28 c12 15 25 27 30 27 5 0 47
-30 92 -67z m4 -159 c54 -32 65 -35 123 -32 65 3 65 3 78 -30 13 -31 12 -33
-14 -43 -79 -31 -82 -31 -180 16 -89 42 -98 50 -93 85 2 13 18 40 25 40 1 0
29 -16 61 -36z"/>
<path d="M1315 1416 c-16 -24 -15 -29 33 -143 70 -163 86 -245 85 -418 -1
-166 -25 -277 -93 -424 -24 -49 -40 -97 -37 -105 3 -8 17 -22 31 -32 24 -15
28 -15 52 1 32 21 94 149 128 267 67 233 51 503 -44 732 -45 108 -69 140 -107
144 -25 2 -35 -2 -48 -22z"/>
<path d="M1113 1320 c-38 -16 -38 -51 1 -137 53 -119 69 -192 70 -318 0 -125
-14 -191 -70 -321 -41 -95 -38 -128 11 -140 36 -9 65 21 103 104 81 176 99
389 48 577 -23 87 -77 204 -103 225 -29 22 -29 22 -60 10z"/>
<path d="M875 1190 c-21 -23 -17 -51 20 -138 57 -135 55 -252 -5 -396 -45
-106 -37 -141 32 -134 30 3 36 9 69 75 49 98 62 168 57 299 -4 92 -9 121 -36
188 -47 118 -93 154 -137 106z"/>
<path d="M660 1080 c-26 -26 -25 -30 6 -92 15 -30 28 -76 31 -109 5 -49 1 -66
-27 -128 -31 -68 -32 -71 -16 -96 21 -32 65 -33 94 -2 61 64 86 197 57 302
-33 122 -95 175 -145 125z"/>
</g>
</svg>
