<?xml version="1.0" standalone="no"?>
<!DOCTYPE svg PUBLIC "-//W3C//DTD SVG 20010904//EN"
 "http://www.w3.org/TR/2001/REC-SVG-20010904/DTD/svg10.dtd">
<svg version="1.0" xmlns="http://www.w3.org/2000/svg"
 width="225.000000pt" height="225.000000pt" viewBox="0 0 225.000000 225.000000"
 preserveAspectRatio="xMidYMid meet">

<g transform="translate(0.000000,225.000000) scale(0.100000,-0.100000)"
fill="#000000" stroke="none">
<path d="M1035 1849 c-329 -38 -597 -310 -634 -642 -10 -92 -7 -109 23 -105
16 2 22 11 24 38 21 267 160 479 387 590 257 125 560 73 764 -131 79 -78 132
-165 168 -274 22 -68 26 -97 26 -200 0 -103 -4 -132 -26 -200 -36 -109 -89
-196 -168 -274 -78 -79 -166 -132 -274 -168 -67 -22 -99 -26 -195 -27 -123 -1
-211 19 -310 69 -52 27 -160 105 -160 116 0 5 28 9 63 11 54 3 62 5 62 23 0
19 -7 20 -110 20 l-110 0 0 -110 c0 -103 1 -110 20 -110 18 0 20 8 23 63 l3
63 57 -44 c79 -61 137 -93 223 -122 379 -129 795 76 924 455 129 380 -75 796
-455 925 -59 20 -226 49 -250 44 -3 -1 -37 -5 -75 -10z"/>
<path d="M1113 1563 c-8 -3 -13 -23 -13 -54 l0 -49 -69 0 c-118 0 -145 -39
-139 -200 3 -100 3 -102 36 -131 l32 -29 148 0 c195 0 192 2 192 -129 0 -62
-4 -101 -12 -109 -8 -8 -59 -12 -163 -12 -155 0 -175 5 -175 41 0 27 -24 41
-45 25 -24 -17 -14 -59 25 -97 26 -26 35 -29 99 -29 l71 0 0 -49 c0 -48 10
-63 38 -54 7 3 12 23 12 54 l0 49 69 0 c118 0 145 39 139 200 -3 100 -3 102
-36 131 l-32 29 -148 0 c-195 0 -192 -2 -192 129 0 62 4 101 12 109 8 8 59 12
164 12 158 0 168 -3 176 -45 4 -25 46 -33 54 -11 9 23 -14 73 -44 96 -19 16
-40 20 -93 20 l-69 0 0 49 c0 48 -10 63 -37 54z"/>
</g>
</svg>
