<?xml version="1.0" standalone="no"?>
<!DOCTYPE svg PUBLIC "-//W3C//DTD SVG 20010904//EN"
 "http://www.w3.org/TR/2001/REC-SVG-20010904/DTD/svg10.dtd">
<svg version="1.0" xmlns="http://www.w3.org/2000/svg"
 width="225.000000pt" height="225.000000pt" viewBox="0 0 225.000000 225.000000"
 preserveAspectRatio="xMidYMid meet">

<g transform="translate(0.000000,225.000000) scale(0.100000,-0.100000)"
fill="#000000" stroke="none">
<path d="M1720 2240 c-78 -17 -163 -66 -224 -129 -104 -110 -144 -249 -112
-391 14 -66 40 -117 189 -375 95 -165 181 -315 192 -332 14 -24 27 -33 46 -33
24 0 42 27 209 315 100 174 191 339 203 368 27 70 29 210 3 285 -42 123 -142
227 -263 272 -64 24 -179 33 -243 20z m217 -102 c80 -29 172 -121 201 -201 27
-72 29 -172 3 -242 -9 -27 -88 -171 -173 -318 -152 -261 -157 -268 -171 -245
-67 103 -311 540 -323 579 -21 65 -15 177 13 241 24 53 90 128 140 159 85 53
212 64 310 27z"/>
<path d="M1719 1957 c-55 -37 -79 -81 -79 -147 0 -100 59 -162 163 -168 53 -3
67 0 97 20 56 38 80 82 80 148 0 43 -6 65 -23 91 -37 55 -81 79 -147 79 -43 0
-65 -6 -91 -23z m152 -86 c57 -58 21 -146 -60 -146 -56 0 -86 30 -86 86 0 81
88 117 146 60z"/>
<path d="M407 1263 c-4 -3 -7 -19 -7 -34 0 -22 6 -30 26 -35 35 -9 59 15 50
50 -5 20 -13 26 -35 26 -15 0 -31 -3 -34 -7z"/>
<path d="M171 1180 c-110 -87 -166 -201 -166 -340 0 -47 6 -105 13 -131 16
-55 380 -687 405 -703 12 -8 22 -8 33 -1 16 11 304 498 369 627 99 192 50 417
-118 550 -61 47 -103 52 -113 11 -6 -23 -2 -31 27 -53 108 -81 159 -169 167
-284 3 -53 -1 -85 -15 -126 -18 -54 -322 -590 -334 -590 -10 0 -319 542 -334
586 -17 46 -19 154 -5 204 18 64 73 143 133 188 56 43 68 67 45 90 -22 22 -55
13 -107 -28z"/>
<path d="M364 991 c-65 -29 -89 -72 -89 -156 0 -84 24 -127 89 -156 55 -25
104 -24 157 4 119 63 119 241 0 304 -53 28 -102 29 -157 4z m140 -102 c14 -17
26 -41 26 -54 0 -13 -12 -37 -26 -54 -58 -70 -172 -13 -150 74 17 69 105 88
150 34z"/>
<path d="M1497 849 c-66 -45 -87 -66 -87 -83 0 -26 17 -46 41 -46 23 0 183
121 187 141 3 19 -23 49 -42 49 -7 0 -52 -27 -99 -61z"/>
<path d="M1215 648 c-90 -63 -105 -80 -88 -107 20 -32 51 -24 133 34 91 64 94
68 86 99 -11 44 -40 38 -131 -26z"/>
<path d="M922 440 c-64 -47 -82 -65 -82 -85 0 -15 8 -29 21 -36 19 -10 33 -4
108 49 69 47 87 65 89 87 4 28 -10 45 -39 45 -8 0 -52 -27 -97 -60z"/>
</g>
</svg>
