<svg width="745" height="305" viewBox="0 0 745 305" fill="none" xmlns="http://www.w3.org/2000/svg">
<path d="M303.261 182L367.661 103H306.261V69H414.661V98L354.261 177H415.861V211H303.261V182ZM481.527 213C469.26 213 458.794 210.533 450.127 205.6C441.594 200.667 435.06 194.133 430.527 186C426.127 177.867 423.927 169.133 423.927 159.8C423.927 149.667 426.127 140.4 430.527 132C434.927 123.467 441.394 116.667 449.927 111.6C458.46 106.4 468.994 103.8 481.527 103.8C494.06 103.8 504.594 106.333 513.127 111.4C521.66 116.467 528.127 123.133 532.527 131.4C536.927 139.667 539.127 148.667 539.127 158.4C539.127 162.533 538.794 166.4 538.127 170H464.327C464.727 175.6 466.794 179.667 470.527 182.2C474.26 184.6 478.327 185.8 482.727 185.8C486.86 185.8 490.727 184.867 494.327 183C498.06 181.133 500.527 178.533 501.727 175.2L533.927 184.4C529.66 192.8 523.06 199.667 514.127 205C505.194 210.333 494.327 213 481.527 213ZM463.527 147.2H498.327C497.794 142.133 495.927 138.133 492.727 135.2C489.66 132.267 485.727 130.8 480.927 130.8C476.127 130.8 472.194 132.267 469.127 135.2C466.06 138.133 464.194 142.133 463.527 147.2ZM623.002 138.2C615.669 138.2 609.002 139 603.002 140.6C597.002 142.2 592.535 144.867 589.602 148.6V211H551.602V105.8H586.402V125.8C590.135 118.733 594.802 113.333 600.402 109.6C606.002 105.733 611.935 103.8 618.202 103.8C620.735 103.8 622.335 103.867 623.002 104V138.2ZM686.605 213C674.072 213 663.538 210.467 655.005 205.4C646.472 200.2 640.005 193.467 635.605 185.2C631.205 176.933 629.005 168 629.005 158.4C629.005 148.667 631.205 139.667 635.605 131.4C640.005 123.133 646.472 116.467 655.005 111.4C663.538 106.333 674.072 103.8 686.605 103.8C699.138 103.8 709.672 106.333 718.205 111.4C726.738 116.467 733.205 123.133 737.605 131.4C742.005 139.667 744.205 148.667 744.205 158.4C744.205 168 742.005 176.933 737.605 185.2C733.205 193.467 726.738 200.2 718.205 205.4C709.672 210.467 699.138 213 686.605 213ZM668.005 158.4C668.005 165.333 669.738 170.867 673.205 175C676.805 179 681.272 181 686.605 181C692.072 181 696.538 179 700.005 175C703.472 170.867 705.205 165.333 705.205 158.4C705.205 151.333 703.472 145.8 700.005 141.8C696.538 137.8 692.072 135.8 686.605 135.8C681.272 135.8 676.805 137.8 673.205 141.8C669.738 145.8 668.005 151.333 668.005 158.4Z" fill="black"/>
<path d="M51 205C51 196.325 51.911 188.821 53.7331 182.487C55.5551 176.153 58.6135 170.508 62.9084 165.551C67.3333 160.594 73.3851 155.912 81.0637 151.506C89.263 146.824 95.6401 143.176 100.195 140.559C104.88 137.806 108.134 135.465 109.956 133.537C111.908 131.472 112.884 129.131 112.884 126.515C112.884 122.659 111.583 119.561 108.98 117.22C106.377 114.88 102.668 113.709 97.8526 113.709C92.5166 113.709 87.7663 115.155 83.6016 118.046C79.4369 120.8 75.4675 124.449 71.6932 128.993L51.9761 104.621C54.8393 101.454 58.8088 98.3563 63.8845 95.327C69.0903 92.2978 75.012 89.8193 81.6494 87.8916C88.417 85.9639 95.6401 85 103.319 85C117.244 85 127.981 88.3046 135.53 94.9139C143.078 101.386 146.853 110.06 146.853 120.938C146.853 127.134 145.681 132.435 143.339 136.842C141.126 141.11 138.198 144.759 134.554 147.788C131.04 150.818 127.396 153.571 123.622 156.05C117.375 159.492 111.908 162.659 107.223 165.551C102.668 168.305 98.5684 171.54 94.9243 175.258H149V205H51Z" fill="black"/>
<path d="M1.46467 37.1721C23.5519 18.208 50.6243 5.99176 79.4579 1.97816C108.291 -2.03544 137.671 2.32275 164.098 14.5337C190.525 26.7447 212.885 46.2938 228.516 70.853C244.147 95.4122 252.39 123.947 252.263 153.058C252.136 182.169 243.645 210.63 227.8 235.053C211.956 259.475 189.426 278.828 162.894 290.809C136.362 302.789 106.946 306.891 78.1482 302.626C49.3507 298.362 22.3858 285.91 0.464568 266.754L37.7138 224.127C51.4639 236.143 68.3777 243.953 86.441 246.628C104.504 249.303 122.956 246.73 139.598 239.216C156.24 231.701 170.372 219.561 180.311 204.243C190.249 188.924 195.575 171.071 195.655 152.811C195.734 134.551 190.564 116.653 180.759 101.248C170.955 85.8433 156.929 73.5811 140.353 65.9217C123.777 58.2624 105.348 55.5287 87.2625 58.0462C69.1766 60.5638 52.1954 68.2264 38.3411 80.1217L1.46467 37.1721Z" fill="url(#paint0_linear_81_402)"/>
<defs>
<linearGradient id="paint0_linear_81_402" x1="56.699" y1="13.9716" x2="96.3408" y2="328.522" gradientUnits="userSpaceOnUse">
<stop stop-color="#77F292"/>
<stop stop-color="#77F292"/>
<stop offset="0.0001" stop-color="#77F292"/>
<stop offset="1" stop-color="#3AC559"/>
</linearGradient>
</defs>
</svg>
