<?xml version="1.0" standalone="no"?>
<!DOCTYPE svg PUBLIC "-//W3C//DTD SVG 20010904//EN"
 "http://www.w3.org/TR/2001/REC-SVG-20010904/DTD/svg10.dtd">
<svg version="1.0" xmlns="http://www.w3.org/2000/svg"
 width="225.000000pt" height="225.000000pt" viewBox="0 0 225.000000 225.000000"
 preserveAspectRatio="xMidYMid meet">

<g transform="translate(0.000000,225.000000) scale(0.100000,-0.100000)"
fill="#000000" stroke="none">
<path d="M857 1825 c-70 -19 -131 -36 -136 -39 -5 -3 -26 -74 -46 -157 l-38
-152 52 -50 53 -50 -53 -53 -52 -53 39 -152 40 -153 152 -39 153 -40 55 54 54
53 51 -52 c27 -29 52 -52 55 -52 2 0 70 16 150 36 96 24 148 42 153 53 5 9 23
78 42 154 l33 137 -52 53 -52 53 53 52 53 52 -39 154 -40 155 -153 37 -154 38
-53 -52 -53 -52 -49 50 c-29 29 -58 50 -70 49 -11 0 -77 -16 -148 -34z m173
-90 l34 -35 -50 -50 -49 -50 -63 63 -63 64 73 20 c40 11 75 21 79 22 3 0 20
-15 39 -34z m328 6 l53 -16 -62 -63 -62 -63 -51 50 -50 51 34 35 c36 38 34 37
138 6z m-513 -141 l59 -60 -49 -50 -49 -50 -35 34 -35 35 19 75 c11 42 22 76
25 76 3 0 32 -27 65 -60z m654 -20 l21 -75 -35 -35 -35 -35 -51 51 -50 51 63
61 c34 33 64 60 65 59 1 -1 11 -36 22 -77z m-324 -90 l-50 -50 -50 50 -50 50
50 50 50 50 50 -50 50 -50 -50 -50z m-155 -65 l44 -45 -50 -50 -49 -50 -50 50
-49 50 44 45 c24 25 49 45 55 45 6 0 31 -20 55 -45z m323 -3 l47 -48 -50 -49
-50 -49 -50 49 -50 49 47 48 c26 26 50 48 53 48 3 0 27 -22 53 -48z m-489
-159 l46 -46 -57 -62 c-32 -35 -61 -63 -64 -64 -3 0 -14 35 -24 79 l-18 80 28
30 c16 17 32 30 36 30 3 0 27 -21 53 -47z m329 -1 l47 -48 -50 -49 -50 -49
-50 49 -50 49 47 48 c26 26 50 48 53 48 3 0 27 -22 53 -48z m305 15 l31 -32
-21 -78 -21 -78 -64 63 -63 62 47 48 c26 26 50 48 53 48 3 0 20 -15 38 -33z
m-473 -172 c25 -24 45 -48 45 -53 0 -4 -13 -21 -30 -37 l-30 -28 -80 18 -81
18 63 64 c34 35 64 63 65 63 2 0 24 -20 48 -45z m337 -12 c32 -32 58 -61 58
-64 0 -4 -34 -15 -75 -25 l-75 -18 -35 34 -35 34 47 48 c26 26 50 48 52 48 3
0 31 -26 63 -57z"/>
<path d="M387 713 c-4 -3 -7 -87 -7 -185 l0 -178 45 0 45 0 0 54 0 55 54 6
c71 9 111 34 126 80 26 79 -11 147 -91 164 -55 12 -162 15 -172 4z m177 -105
c18 -29 -4 -53 -53 -56 l-41 -3 0 41 0 41 41 -3 c27 -2 46 -9 53 -20z"/>
<path d="M720 535 l0 -185 100 0 100 0 0 40 0 40 -55 0 -55 0 0 145 0 145 -45
0 -45 0 0 -185z"/>
<path d="M1037 553 c-36 -93 -69 -176 -73 -185 -5 -16 1 -18 45 -18 46 0 51 2
57 25 6 24 10 25 74 25 64 0 68 -1 74 -25 6 -23 11 -25 57 -25 37 0 50 3 46
13 -3 6 -35 90 -73 185 l-67 172 -37 0 -36 0 -67 -167z m124 -18 l16 -55 -37
0 -37 0 16 55 c9 30 18 55 21 55 3 0 12 -25 21 -55z"/>
<path d="M1370 535 l0 -185 45 0 45 0 0 185 0 185 -45 0 -45 0 0 -185z"/>
<path d="M1547 713 c-4 -3 -7 -87 -7 -185 l0 -178 93 0 c153 1 214 46 224 168
8 99 -47 175 -138 193 -53 10 -163 12 -172 2z m193 -108 c19 -20 24 -37 24
-75 0 -62 -23 -89 -83 -97 l-41 -6 0 102 0 101 38 0 c28 0 45 -7 62 -25z"/>
</g>
</svg>
