<?xml version="1.0" standalone="no"?>
<!DOCTYPE svg PUBLIC "-//W3C//DTD SVG 20010904//EN"
 "http://www.w3.org/TR/2001/REC-SVG-20010904/DTD/svg10.dtd">
<svg version="1.0" xmlns="http://www.w3.org/2000/svg"
 width="321.000000pt" height="357.000000pt" viewBox="0 0 321.000000 357.000000"
 preserveAspectRatio="xMidYMid meet">

<g transform="translate(0.000000,357.000000) scale(0.100000,-0.100000)"
fill="#000000" stroke="none">
<path d="M1520 3054 c-25 -3 -88 -14 -140 -25 -493 -103 -881 -479 -1000 -969
-27 -112 -39 -285 -28 -418 22 -288 146 -564 346 -774 67 -70 191 -178 205
-178 2 0 16 18 30 39 l26 39 -57 45 c-566 445 -616 1286 -106 1793 232 230
528 354 849 354 688 0 1236 -575 1202 -1260 -12 -232 -74 -422 -203 -615 -59
-88 -200 -240 -267 -285 -20 -14 -37 -31 -37 -37 0 -7 12 -26 28 -43 l27 -31
65 54 c88 73 208 201 258 274 304 447 304 1037 2 1475 -238 345 -612 549
-1030 562 -69 2 -145 2 -170 0z"/>
<path d="M1363 2550 c-176 -17 -346 -75 -411 -141 -71 -70 -67 -32 -67 -669
l0 -575 27 -50 c58 -110 137 -154 289 -162 55 -3 99 -9 99 -12 0 -3 -39 -55
-88 -116 -135 -170 -135 -170 -106 -199 30 -31 58 -19 110 45 l49 61 380 -1
380 0 25 -29 c14 -16 37 -43 53 -60 30 -35 57 -40 81 -16 29 29 30 28 -126
226 -37 47 -68 88 -68 91 0 2 44 7 98 10 154 8 235 54 294 167 l23 45 0 575
c0 529 -1 578 -17 607 -47 85 -143 139 -318 179 -104 23 -139 26 -365 29 -137
2 -291 0 -342 -5z m447 -90 c181 -13 259 -25 335 -52 96 -33 165 -93 165 -142
0 -14 -63 -16 -665 -16 l-665 0 0 21 c0 12 19 40 43 64 72 72 196 106 446 124
157 12 182 12 341 1z m-212 -562 l-3 -253 -307 -3 -308 -2 0 255 0 255 310 0
310 0 -2 -252z m712 -3 l0 -255 -307 2 -308 3 -3 253 -2 252 310 0 310 0 0
-255z m-2 -523 c2 -143 0 -177 -14 -205 -23 -45 -53 -76 -96 -98 -35 -18 -66
-19 -553 -19 -487 0 -518 1 -553 19 -43 22 -73 53 -96 98 -13 26 -16 65 -16
201 0 93 3 171 6 175 3 3 302 5 663 4 l656 -2 3 -173z m-411 -476 c23 -29 39
-56 36 -60 -8 -8 -568 -8 -576 0 -3 4 13 30 36 60 l42 53 210 0 210 1 42 -54z"/>
<path d="M1152 1454 c-137 -70 -94 -284 60 -301 125 -14 215 115 159 229 -12
24 -33 52 -48 63 -37 26 -127 31 -171 9z m116 -94 c41 -39 18 -110 -36 -110
-58 0 -87 82 -40 114 30 21 50 20 76 -4z"/>
<path d="M1980 1448 c-57 -39 -75 -72 -75 -137 0 -48 5 -64 28 -94 95 -124
287 -59 287 97 0 63 -35 121 -86 142 -51 21 -115 18 -154 -8z m120 -86 c43
-35 17 -112 -38 -112 -57 0 -81 63 -40 107 26 28 48 29 78 5z"/>
</g>
</svg>
