<?xml version="1.0" standalone="no"?>
<!DOCTYPE svg PUBLIC "-//W3C//DTD SVG 20010904//EN"
 "http://www.w3.org/TR/2001/REC-SVG-20010904/DTD/svg10.dtd">
<svg version="1.0" xmlns="http://www.w3.org/2000/svg"
 width="250.000000pt" height="286.000000pt" viewBox="0 0 250.000000 286.000000"
 preserveAspectRatio="xMidYMid meet">

<g transform="translate(0.000000,286.000000) scale(0.100000,-0.100000)"
fill="#000000" stroke="none">
<path d="M895 2506 c-110 -24 -171 -49 -239 -95 -189 -130 -279 -381 -280
-781 -1 -162 2 -195 22 -268 57 -210 213 -404 431 -536 34 -21 61 -40 61 -44
0 -3 -10 -17 -23 -31 -45 -49 -243 -306 -250 -324 -8 -22 1 -45 23 -57 28 -15
45 -4 101 66 l51 64 413 0 414 0 28 -36 c62 -81 91 -106 115 -98 26 8 38 22
38 45 0 9 -51 81 -113 160 -62 79 -125 160 -140 180 l-27 36 67 41 c203 121
358 311 424 522 22 69 24 92 24 280 -1 211 -17 337 -62 475 -72 225 -222 353
-472 404 -151 31 -462 29 -606 -3z m590 -91 c320 -61 455 -298 455 -798 0
-170 -13 -244 -60 -341 -117 -246 -438 -474 -670 -477 -79 -1 -141 16 -255 71
-238 115 -425 331 -470 546 -30 141 -13 452 34 615 46 162 132 275 255 334 84
40 139 54 261 65 114 11 359 3 450 -15z m-400 -1699 c81 -22 179 -20 257 4 34
11 68 20 75 20 11 0 113 -121 113 -134 0 -3 -146 -6 -325 -6 -179 0 -325 3
-325 6 0 3 23 35 52 71 40 50 56 64 72 60 12 -2 48 -12 81 -21z"/>
<path d="M1005 2296 c-160 -26 -273 -79 -314 -147 -30 -48 -66 -258 -66 -379
0 -102 1 -106 33 -152 59 -85 198 -170 376 -230 122 -41 216 -42 336 -3 225
72 382 185 421 302 13 41 1 164 -33 337 -19 96 -26 115 -56 148 -43 47 -133
91 -232 113 -101 22 -360 28 -465 11z m481 -114 c88 -28 141 -60 158 -96 20
-42 61 -336 52 -372 -18 -73 -189 -185 -365 -240 -101 -31 -159 -30 -262 5
-212 71 -359 180 -359 265 0 24 15 125 41 274 18 98 58 134 189 165 36 9 74
18 85 21 11 3 106 3 210 2 156 -3 201 -7 251 -24z"/>
<path d="M635 1366 c-22 -33 -11 -52 65 -115 127 -106 226 -146 250 -101 18
34 3 56 -61 90 -33 18 -92 59 -131 91 -39 32 -79 59 -89 59 -10 0 -26 -11 -34
-24z"/>
<path d="M1661 1338 c-34 -29 -91 -72 -128 -94 -62 -38 -68 -44 -68 -75 0 -31
3 -34 31 -37 40 -4 149 59 232 134 65 58 74 80 44 107 -29 26 -46 21 -111 -35z"/>
</g>
</svg>
