<?xml version="1.0" standalone="no"?>
<!DOCTYPE svg PUBLIC "-//W3C//DTD SVG 20010904//EN"
 "http://www.w3.org/TR/2001/REC-SVG-20010904/DTD/svg10.dtd">
<svg version="1.0" xmlns="http://www.w3.org/2000/svg"
 width="217.000000pt" height="244.000000pt" viewBox="0 0 217.000000 244.000000"
 preserveAspectRatio="xMidYMid meet">

<g transform="translate(0.000000,244.000000) scale(0.100000,-0.100000)"
fill="#000000" stroke="none">
<path d="M925 2095 c-39 -21 -75 -55 -75 -72 0 -21 22 -15 64 17 22 17 45 30
52 30 12 0 42 -105 33 -115 -3 -2 -47 -9 -99 -15 -155 -18 -263 -40 -298 -62
-44 -27 -82 -94 -82 -146 0 -36 -5 -45 -45 -78 l-45 -36 0 -119 c0 -99 3 -119
15 -119 12 0 15 18 15 103 0 95 2 105 23 125 13 12 26 22 30 22 4 0 7 -242 7
-538 l0 -538 29 -45 c39 -62 84 -83 194 -87 l88 -4 -71 -135 c-39 -74 -68
-139 -65 -144 13 -20 32 -7 53 36 l22 45 345 0 345 0 22 -45 c21 -43 40 -56
52 -36 3 5 -26 70 -65 145 l-71 136 79 0 c103 0 171 31 208 94 l25 43 0 536
c0 296 4 537 8 537 5 0 18 -10 30 -23 20 -21 22 -34 22 -125 0 -84 3 -102 15
-102 12 0 15 20 15 119 l0 119 -45 36 c-40 33 -45 42 -45 78 0 52 -38 119 -82
146 -37 23 -146 46 -292 62 -55 6 -102 13 -105 15 -9 10 21 115 33 115 7 0 30
-13 52 -30 72 -54 91 -23 21 34 l-39 31 -171 3 c-142 2 -177 0 -202 -13z m281
-47 c-3 -13 -9 -40 -12 -60 l-7 -38 -72 0 -72 0 -7 38 c-3 20 -9 47 -12 60 -6
22 -5 22 91 22 96 0 97 0 91 -22z m253 -163 c58 -9 117 -23 132 -30 47 -25 77
-70 84 -127 3 -29 5 -303 3 -609 l-3 -556 -29 -37 c-50 -66 -47 -66 -531 -66
-484 0 -481 0 -531 66 l-29 37 -3 579 c-2 382 1 591 8 617 22 81 74 106 285
137 124 18 477 12 614 -11z m-91 -1490 c7 -14 12 -28 12 -30 0 -3 -119 -5
-265 -5 -146 0 -265 2 -265 5 0 2 5 16 12 30 l11 25 242 0 242 0 11 -25z m52
-101 c6 -14 10 -27 10 -30 0 -2 -142 -4 -315 -4 -173 0 -315 2 -315 4 0 3 4
16 10 30 l10 26 295 0 295 0 10 -26z"/>
<path d="M940 1786 c0 -22 24 -26 175 -26 151 0 175 4 175 26 0 11 -32 14
-175 14 -143 0 -175 -3 -175 -14z"/>
<path d="M664 1646 c-17 -8 -34 -21 -38 -31 -3 -9 -6 -160 -6 -334 0 -310 0
-318 21 -337 20 -18 45 -19 470 -22 l449 -3 25 25 25 25 0 316 c0 187 -4 324
-10 335 -19 36 -60 40 -488 39 -326 0 -424 -3 -448 -13z m431 -356 l0 -325
-206 -3 c-162 -2 -209 0 -217 11 -8 9 -12 112 -12 317 -2 282 0 305 16 317 14
10 65 13 219 11 l200 -3 0 -325z m465 310 c20 -20 21 -30 18 -321 -3 -253 -5
-301 -18 -309 -9 -6 -102 -9 -220 -7 l-205 2 -3 315 c-1 173 0 320 3 327 3 10
53 13 205 13 188 0 201 -1 220 -20z"/>
<path d="M657 800 c-14 -11 -31 -36 -37 -55 -16 -48 11 -103 60 -127 92 -45
182 52 138 147 -24 53 -113 73 -161 35z m116 -38 c27 -24 19 -80 -14 -105 -54
-40 -125 20 -99 83 20 49 71 59 113 22z"/>
<path d="M1451 806 c-78 -43 -61 -171 26 -195 79 -22 158 57 133 134 -22 66
-97 95 -159 61z m83 -27 c57 -26 54 -105 -4 -129 -28 -12 -34 -11 -58 7 -31
23 -41 75 -21 100 11 12 33 25 56 32 1 1 13 -4 27 -10z"/>
</g>
</svg>
